<?xml version="1.0" encoding="UTF-8"?>
<svg id="Capa_2" data-name="Capa 2" xmlns="http://www.w3.org/2000/svg" xmlns:xlink="http://www.w3.org/1999/xlink" viewBox="0 0 726.05 299.8">
  <defs>
    <style>
      .cls-1 {
        fill: url(#Degradado_sin_nombre_84-3);
      }

      .cls-2 {
        fill: url(#Degradado_sin_nombre_84-4);
      }

      .cls-3 {
        fill: url(#Degradado_sin_nombre_84-2);
      }

      .cls-4 {
        fill: url(#Degradado_sin_nombre_84-5);
      }

      .cls-5 {
        fill: url(#Degradado_sin_nombre_84-6);
      }

      .cls-6 {
        fill: url(#Degradado_sin_nombre_84);
      }

      .cls-7 {
        fill: #050e28;
      }

      .cls-8 {
        fill: #009eff;
      }
    </style>
    <linearGradient id="Degradado_sin_nombre_84" data-name="Degradado sin nombre 84" x1="467.15" y1="-55.46" x2="378.68" y2="229.08" gradientUnits="userSpaceOnUse">
      <stop offset="0" stop-color="#001f4c"/>
      <stop offset="1" stop-color="#050e28"/>
    </linearGradient>
    <linearGradient id="Degradado_sin_nombre_84-2" data-name="Degradado sin nombre 84" x1="655.4" y1="3.07" x2="566.94" y2="287.61" xlink:href="#Degradado_sin_nombre_84"/>
    <linearGradient id="Degradado_sin_nombre_84-3" data-name="Degradado sin nombre 84" x1="226.63" y1="101.64" x2="169.26" y2="-1.77" xlink:href="#Degradado_sin_nombre_84"/>
    <linearGradient id="Degradado_sin_nombre_84-4" data-name="Degradado sin nombre 84" x1="177.06" y1="-15.64" x2="64.32" y2="194.46" xlink:href="#Degradado_sin_nombre_84"/>
    <linearGradient id="Degradado_sin_nombre_84-5" data-name="Degradado sin nombre 84" x1="149.9" y1="133.9" x2="208.83" y2="245.51" xlink:href="#Degradado_sin_nombre_84"/>
    <linearGradient id="Degradado_sin_nombre_84-6" data-name="Degradado sin nombre 84" x1="337.48" y1="-2.22" x2="217.68" y2="218.65" xlink:href="#Degradado_sin_nombre_84"/>
  </defs>
  <g id="Capa_1-2" data-name="Capa 1">
    <g>
      <g>
        <path class="cls-6" d="M505.4,45.15l5.92-33.69c.98-5.59-3.32-10.72-9-10.72h-108.27c-3.35,0-6.44,1.84-8.03,4.78l-85.03,156.92c-.47.87-.79,1.8-.97,2.77l-10.74,61.04c-.98,5.59,3.32,10.72,9,10.72h169.81c4.42,0,8.21-3.17,8.99-7.52l6.19-34.39c1.01-5.6-3.3-10.76-8.99-10.76h-103.08c-5.68,0-9.98-5.13-9-10.72l4.21-23.91c.77-4.37,4.56-7.55,9-7.55h98.06c4.44,0,8.23-3.19,9-7.56l5.57-31.68c.98-5.59-3.32-10.72-9-10.72h-91.7c-5.66,0-9.96-5.09-9.01-10.67l3.61-21.2c.75-4.39,4.55-7.6,9.01-7.6h105.44c4.44,0,8.23-3.19,9-7.56Z"/>
        <path class="cls-3" d="M666.55,160.72c-1.67-2.81-.32-6.38,2.74-7.54,36.98-14.01,56.76-42.48,56.76-82.27,0-43.19-31.04-70.17-78.94-70.17h-111.02c-2.54,0-4.71,1.83-5.16,4.33l-9.31,52.97,75.84-4.21c2.5-.14,3.73-3.1,2.06-4.97l-18.26-20.46c-2.16-2.42.55-6.07,3.49-4.69l99.41,46.61c2.29,1.07,2.29,4.33,0,5.41l-99.41,46.61c-2.94,1.38-5.66-2.27-3.49-4.69l18.26-20.46c1.67-1.87.44-4.83-2.06-4.97l-81.05-4.5-25.16,143.11c-.56,3.21,1.9,6.14,5.16,6.14h54.46c2.55,0,4.72-1.83,5.16-4.34l11.34-65.55c.43-2.51,2.61-4.34,5.16-4.34h24.19c1.93,0,3.71,1.07,4.62,2.78l36.52,68.68c.91,1.71,2.68,2.78,4.62,2.78h60.22c4.06,0,6.58-4.42,4.5-7.91l-40.66-68.35Z"/>
      </g>
      <g>
        <path class="cls-7" d="M6.66,261.1h5.3l-6.66,37.89H0l6.66-37.89Z"/>
        <path class="cls-7" d="M83.1,261.1l-6.66,37.89h-5.31l5.03-28.42-17.16,17.65h-1.19l-10.66-18.68-5.14,29.45h-5.31l6.66-37.89h4.87l11.1,19.43,18.84-19.43h4.92Z"/>
        <path class="cls-7" d="M154.29,261.1l-6.66,37.89h-5.31l5.03-28.42-17.16,17.65h-1.19l-10.66-18.68-5.14,29.45h-5.31l6.66-37.89h4.87l11.1,19.43,18.84-19.43h4.92Z"/>
        <path class="cls-7" d="M185.74,261.1h5.3l-6.66,37.89h-5.31l6.66-37.89Z"/>
        <path class="cls-7" d="M235.71,277.99h16.24l-2.76,15.92c-4.88,3.95-9.91,5.84-15.92,5.84-10.01,0-16.67-6.44-16.67-15.92,0-13.8,9.53-23.49,23.55-23.49,5.36,0,10.01,2.06,13.15,5.79l-4.01,3.41c-2.22-2.71-5.84-4.22-9.69-4.22-10.12,0-17.81,7.69-17.81,17.65,0,7.2,4.5,11.8,12.45,11.8,3.57,0,7.04-1.24,10.34-3.57l1.52-8.44h-11.21l.82-4.76Z"/>
        <path class="cls-7" d="M300.41,285.51l9.85,13.48h-6.44l-9.58-13.32h-8.77l-2.33,13.32h-5.31l6.71-37.89h17.37c7.36,0,12.24,5.47,11.15,12.67-.97,6.39-5.84,10.83-12.67,11.75ZM301.27,266.03h-12.34l-2.6,14.72h12.24c4.98,0,8.66-2.97,9.31-7.74.54-4.06-2.16-6.98-6.6-6.98Z"/>
        <path class="cls-7" d="M366.56,290.76h-21.22l-5.09,8.23h-6.01l23.66-37.89h5.95l10.34,37.89h-5.36l-2.27-8.23ZM348.32,285.78h17.05l-5.14-19.21-11.91,19.21Z"/>
        <path class="cls-7" d="M430.12,266.03h-12.78l-5.79,32.96h-5.36l5.85-32.96h-12.78l.92-4.93h30.8l-.86,4.93Z"/>
        <path class="cls-7" d="M458.38,261.1h5.3l-6.66,37.89h-5.31l6.66-37.89Z"/>
        <path class="cls-7" d="M489.57,279.56c2.01-11.53,10.94-19.27,22.41-19.27s18.13,8.28,16.02,20.24c-2.01,11.53-10.99,19.27-22.47,19.27s-18.08-8.28-15.97-20.24ZM522.75,279.78c1.51-8.55-3.09-14.51-11.21-14.51s-15.15,6.06-16.73,15.05c-1.51,8.5,3.03,14.45,11.26,14.45s15.1-6.01,16.67-14.99Z"/>
        <path class="cls-7" d="M592.37,261.1l-6.66,37.89h-4.6l-16.73-29.23-1.78,10.12-3.35,19.11h-5.31l6.66-37.89h4.54l16.73,29.23,2.01-10.99,3.14-18.24h5.36Z"/>
        <path class="cls-8" d="M679.15,290.76h-21.22l-5.09,8.23h-6.01l23.66-37.89h5.95l10.34,37.89h-5.36l-2.27-8.23ZM660.91,285.78h17.05l-5.14-19.21-11.91,19.21Z"/>
        <path class="cls-8" d="M720.57,261.1h5.3l-6.66,37.89h-5.31l6.66-37.89Z"/>
      </g>
      <g>
        <g>
          <path class="cls-1" d="M240.11,69.14l-26.12,48.2c-3.34,6.19-12.22,6.19-15.56,0l-28.28-52.13-.16-.29-28.08-51.84c-3.21-5.9,1.05-13.07,7.77-13.07h52.26c1.12,0,2.2.2,3.21.62,1.93.72,3.57,2.13,4.59,4.03l30.37,56.03c1.44,2.65,1.44,5.8,0,8.45Z"/>
          <path class="cls-2" d="M205.15.62l-35,64.59-91.19,168.23c-1.54,2.85-4.52,4.65-7.77,4.65H18.89c-6.72,0-10.98-7.21-7.77-13.11L130.53,4.65c1.57-2.85,4.56-4.65,7.8-4.65h63.6c1.12,0,2.2.2,3.21.62Z"/>
        </g>
        <g>
          <path class="cls-4" d="M136.34,168.95l26.12-48.2c3.34-6.19,12.22-6.19,15.56,0l28.28,52.13.16.29,28.08,51.84c3.21,5.9-1.05,13.07-7.77,13.07h-52.26c-1.12,0-2.2-.2-3.21-.62-1.93-.72-3.57-2.13-4.59-4.03l-30.37-56.03c-1.44-2.65-1.44-5.8,0-8.45Z"/>
          <path class="cls-5" d="M171.3,237.47l35-64.59L297.49,4.65c1.54-2.85,4.52-4.65,7.77-4.65h52.3c6.72,0,10.98,7.21,7.77,13.11l-119.41,220.33c-1.57,2.85-4.56,4.65-7.8,4.65h-63.6c-1.12,0-2.2-.2-3.21-.62Z"/>
        </g>
      </g>
    </g>
  </g>
</svg>